<?xml version="1.0" encoding="UTF-8" standalone="no"?>
<!DOCTYPE svg PUBLIC "-//W3C//DTD SVG 1.1//EN" "http://www.w3.org/Graphics/SVG/1.1/DTD/svg11.dtd">
<svg width="100%" height="100%" viewBox="0 0 206 49" version="1.1" xmlns="http://www.w3.org/2000/svg" xmlns:xlink="http://www.w3.org/1999/xlink" xml:space="preserve" xmlns:serif="http://www.serif.com/" style="fill-rule:evenodd;clip-rule:evenodd;stroke-linejoin:round;stroke-miterlimit:1.5;">
    <g transform="matrix(1,0,0,1,-27,-273)">
        <g id="Artboard2" transform="matrix(0.967142,0,0,1.01563,-0.0597131,-4.50095)">
            <rect x="27.979" y="273.23" width="212.999" height="48.246" style="fill:none;"/>
            <g transform="matrix(1.03397,0,0,0.984608,-234.171,-244.143)">
                <g transform="matrix(1.79964,0,0,1.53443,-622.372,-367.359)">
                    <path d="M496.825,586.419L505.27,603.311L488.379,603.311L496.825,586.419Z" style="fill:white;stroke:black;stroke-width:1.49px;"/>
                </g>
                <g transform="matrix(1.79607,0,0,1.53443,-613.843,-364.483)">
                    <path d="M496.825,586.419L505.27,603.311L488.379,603.311L496.825,586.419Z" style="stroke:black;stroke-width:1.5px;"/>
                </g>
            </g>
            <g transform="matrix(1.28925,0,0,0.984608,-27.5548,0.851699)">
                <g transform="matrix(32.0799,0,0,40,76.8809,311.636)">
                    <path d="M0.297,0.009C0.414,0.009 0.507,-0.051 0.533,-0.168L0.442,-0.168C0.419,-0.106 0.368,-0.074 0.298,-0.074C0.209,-0.074 0.14,-0.139 0.14,-0.242C0.14,-0.344 0.209,-0.408 0.297,-0.408C0.366,-0.408 0.418,-0.378 0.442,-0.321L0.531,-0.321C0.505,-0.424 0.413,-0.491 0.297,-0.491C0.153,-0.491 0.043,-0.391 0.043,-0.242C0.043,-0.095 0.153,0.009 0.297,0.009Z" style="fill-rule:nonzero;"/>
                </g>
                <g transform="matrix(32.0799,0,0,40,94.3324,311.636)">
                    <path d="M0.534,-0.146L0.534,-0.45C0.469,-0.476 0.405,-0.491 0.323,-0.491C0.16,-0.491 0.044,-0.399 0.044,-0.233C0.044,-0.081 0.134,0.009 0.274,0.009C0.346,0.009 0.409,-0.022 0.447,-0.077C0.466,0.001 0.544,0.013 0.609,0L0.609,-0.08C0.549,-0.072 0.534,-0.091 0.534,-0.146ZM0.287,-0.074C0.195,-0.074 0.14,-0.134 0.14,-0.234C0.14,-0.347 0.208,-0.408 0.323,-0.408C0.372,-0.408 0.403,-0.404 0.44,-0.394L0.44,-0.244C0.44,-0.141 0.383,-0.074 0.287,-0.074Z" style="fill-rule:nonzero;"/>
                </g>
                <g transform="matrix(32.0799,0,0,40,113.837,311.636)">
                    <path d="M0.363,-0.491C0.281,-0.491 0.217,-0.457 0.181,-0.404C0.168,-0.482 0.101,-0.494 0.023,-0.482L0.023,-0.402C0.087,-0.411 0.099,-0.39 0.099,-0.332L0.099,0.208L0.193,0.208L0.193,-0.058C0.232,-0.014 0.283,0.009 0.348,0.009C0.51,0.009 0.592,-0.102 0.592,-0.241C0.592,-0.371 0.521,-0.491 0.363,-0.491ZM0.342,-0.074C0.237,-0.074 0.19,-0.144 0.19,-0.235C0.19,-0.334 0.239,-0.408 0.343,-0.408C0.445,-0.408 0.497,-0.329 0.497,-0.241C0.497,-0.145 0.444,-0.074 0.342,-0.074Z" style="fill-rule:nonzero;"/>
                </g>
                <g transform="matrix(32.0799,0,0,40,133.438,311.636)">
                    <path d="M0.381,-0.094C0.351,-0.081 0.326,-0.077 0.3,-0.077C0.237,-0.077 0.214,-0.116 0.214,-0.189L0.214,-0.404L0.384,-0.404L0.384,-0.482L0.214,-0.482L0.214,-0.627L0.13,-0.627L0.12,-0.482L0.019,-0.482L0.019,-0.41L0.119,-0.404L0.119,-0.188C0.119,-0.053 0.182,0.005 0.283,0.005C0.319,0.005 0.36,-0.002 0.406,-0.019L0.381,-0.094Z" style="fill-rule:nonzero;"/>
                </g>
                <g transform="matrix(32.0799,0,0,40,148.002,311.636)">
                    <path d="M0.131,-0.568C0.164,-0.568 0.19,-0.589 0.19,-0.624C0.19,-0.659 0.164,-0.681 0.131,-0.681C0.099,-0.681 0.072,-0.659 0.072,-0.624C0.072,-0.589 0.099,-0.568 0.131,-0.568ZM0.026,0.217C0.138,0.217 0.178,0.156 0.178,0.016L0.178,-0.482L0.084,-0.482L0.084,0.02C0.084,0.111 0.066,0.135 0.007,0.135C-0.012,0.135 -0.028,0.133 -0.044,0.13L-0.044,0.208C-0.02,0.214 0.003,0.217 0.026,0.217Z" style="fill-rule:nonzero;"/>
                </g>
                <g transform="matrix(32.0799,0,0,40,154.514,311.636)">
                    <path d="M0.301,0.009C0.447,0.009 0.562,-0.092 0.562,-0.243C0.562,-0.393 0.449,-0.491 0.302,-0.491C0.154,-0.491 0.043,-0.393 0.043,-0.243C0.043,-0.093 0.154,0.009 0.301,0.009ZM0.302,-0.074C0.207,-0.074 0.138,-0.138 0.138,-0.243C0.138,-0.346 0.209,-0.408 0.302,-0.408C0.396,-0.408 0.467,-0.346 0.467,-0.243C0.467,-0.137 0.397,-0.074 0.302,-0.074Z" style="fill-rule:nonzero;"/>
                </g>
                <g transform="matrix(32.0799,0,0,40,173.121,311.636)">
                    <path d="M0.523,-0.136L0.523,-0.482L0.428,-0.482L0.428,-0.224C0.428,-0.138 0.375,-0.074 0.294,-0.074C0.223,-0.074 0.176,-0.121 0.176,-0.198L0.176,-0.346C0.176,-0.46 0.121,-0.502 0.021,-0.482L0.021,-0.406C0.06,-0.412 0.082,-0.4 0.082,-0.346L0.082,-0.192C0.082,-0.071 0.159,0.009 0.268,0.009C0.34,0.009 0.396,-0.018 0.438,-0.079C0.454,-0.005 0.507,0.014 0.591,0L0.591,-0.078C0.545,-0.071 0.523,-0.082 0.523,-0.136Z" style="fill-rule:nonzero;"/>
                </g>
                <g transform="matrix(32.0799,0,0,40,192.016,311.636)">
                    <path d="M0.325,-0.491C0.271,-0.491 0.213,-0.463 0.182,-0.409C0.164,-0.478 0.11,-0.496 0.023,-0.482L0.023,-0.402C0.076,-0.409 0.099,-0.396 0.099,-0.343L0.099,0L0.193,0L0.193,-0.278C0.193,-0.358 0.252,-0.403 0.316,-0.403C0.352,-0.403 0.38,-0.395 0.41,-0.377L0.444,-0.458C0.405,-0.48 0.369,-0.491 0.325,-0.491Z" style="fill-rule:nonzero;"/>
                </g>
            </g>
        </g>
    </g>
</svg>
